<svg fill="#ffffff" role="img" viewBox="0 0 24 24" xmlns="http://www.w3.org/2000/svg"><title>Uber Eats</title><path d="M2.6348 10.647c-.4882 0-.9527.1585-1.322.5095C.9244 11.5196.753 12.024.753 12.5776c0 .5537.1715 1.0588.5598 1.4215.3693.3502.834.5085 1.322.5085.489 0 .9528-.1583 1.322-.5085.3884-.3627.5599-.8678.5599-1.4215 0-.5536-.1715-1.058-.5598-1.4211-.3693-.351-.8332-.5095-1.3221-.5095zm0 3.4306c-.3372 0-.6293-.1259-.8594-.3452-.2545-.243-.3942-.5916-.3942-.9603 0-.3695.1397-.718.3942-.9612.2301-.2192.5222-.3452.8594-.3452.3373 0 .6294.126.8595.3452.2544.2431.3942.5917.3942.9612 0 .3687-.1398.7172-.3942.9603-.2301.2193-.5222.3452-.8595.3452zM7.949 7.8477v3.1536c-.3704-.276-.8196-.354-1.2063-.354-.5766 0-1.0923.194-1.4663.5813-.3942.408-.596.9463-.596 1.4808 0 .6335.2293 1.1254.5818 1.4747.3704.3668.8708.5685 1.3862.5685.5012 0 .9174-.1478 1.3005-.5095v.3985h.5128V7.8477zm-1.1402 6.2299c-.3468 0-.6685-.134-.9117-.3748-.2598-.2576-.404-.6226-.404-1.0114 0-.3947.1287-.7282.4092-.9989.2452-.237.5542-.3573.919-.3573.3613 0 .6668.1292.9084.3695.2553.2535.3928.5897.3928.9867 0 .3948-.1397.7356-.4033 1.001-.2415.243-.5571.386-.9104.386zM11.4498 10.647c-.489 0-.9528.1585-1.3221.5095-.3884.3631-.5599.8675-.5599 1.4211 0 .5537.1715 1.0588.5599 1.4215.3693.3502.8331.5085 1.322.5085.489 0 .9528-.1583 1.322-.5085.3884-.3627.5598-.8678.5598-1.4215 0-.5536-.1714-1.058-.5597-1.4211-.3693-.351-.8332-.5095-1.322-.5095zm0 3.4306c-.3372 0-.6293-.1259-.8594-.3452-.2545-.243-.3942-.5916-.3942-.9603 0-.3695.1397-.718.3942-.9612.23-.2192.5222-.3452.8594-.3452.3373 0 .6294.126.8595.3452.2544.2431.3941.5917.3941.9612 0 .3687-.1397.7172-.3941.9603-.2301.2193-.5222.3452-.8595.3452zM16.2262 10.647c-.489 0-.9528.1585-1.3221.5095-.3884.3631-.5599.8675-.5599 1.4211 0 .5537.1715 1.0588.5599 1.4215.3693.3502.8331.5085 1.322.5085.489 0 .9528-.1583 1.3221-.5085.3884-.3627.5598-.8678.5598-1.4215 0-.5536-.1714-1.058-.5598-1.4211-.3693-.351-.8331-.5095-1.322-.5095zm0 3.4306c-.3372 0-.6293-.1259-.8594-.3452-.2545-.243-.3942-.5916-.3942-.9603 0-.3695.1397-.718.3942-.9612.23-.2192.5222-.3452.8594-.3452.3373 0 .6294.126.8595.3452.2544.2431.3942.5917.3942.9612 0 .3687-.1398.7172-.3942.9603-.2301.2193-.5222.3452-.8595.3452zM21.3653 7.8477v3.1536c-.3704-.276-.8196-.354-1.2063-.354-.5766 0-1.0923.194-1.4663.5813-.3942.408-.596.9463-.596 1.4808 0 .6335.2293 1.1254.5818 1.4747.3704.3668.8708.5685 1.3862.5685.5012 0 .9174-.1478 1.3006-.5095v.3985h.5127V7.8477zm-1.1402 6.2299c-.3468 0-.6685-.134-.9117-.3748-.2598-.2576-.404-.6226-.404-1.0114 0-.3947.1287-.7282.4092-.9989.2452-.237.5542-.3573.919-.3573.3614 0 .6669.1292.9084.3695.2553.2535.3929.5897.3929.9867 0 .3948-.1398.7356-.4034 1.001-.2415.243-.557.386-.9104.386zM23.247 15.1254c0 .4833-.3918.8752-.8752.8752-.4833 0-.8752-.392-.8752-.8752s.392-.8752.8752-.8752c.4834 0 .8752.3919.8752.8752z"/></svg>